solid bottom
facet normal 0.0 0.0 -1.0
  outer loop
    vertex 110.61111599815091 325.3546722266949 0.0
    vertex 23.611115998150915 278.3546722266949 0.0
    vertex 23.611115998150915 325.3546722266949 0.0
  endloop
endfacet
facet normal 0.0 0.0 -1.0
  outer loop
    vertex 23.611115998150915 278.3546722266949 0.0
    vertex 110.61111599815091 325.3546722266949 0.0
    vertex 110.61111599815091 278.3546722266949 0.0
  endloop
endfacet
facet normal -0.0 -0.0 1.0
  outer loop
    vertex 23.611115998150915 278.3546722266949 1.9999999999999998
    vertex 25.603029503750335 280.3460443360162 1.9999999999999998
    vertex 23.611115998150915 325.3546722266949 1.9999999999999998
  endloop
endfacet
facet normal -0.0 -0.0 1.0
  outer loop
    vertex 25.603029503750335 280.3460443360162 1.9999999999999998
    vertex 23.611115998150915 278.3546722266949 1.9999999999999998
    vertex 110.61111599815091 278.3546722266949 1.9999999999999998
  endloop
endfacet
facet normal -0.0 -0.0 1.0
  outer loop
    vertex 25.603029503750335 280.3460443360162 1.9999999999999998
    vertex 110.61111599815091 278.3546722266949 1.9999999999999998
    vertex 108.60302950375032 280.3460443360162 1.9999999999999998
  endloop
endfacet
facet normal -0.0 -0.0 1.0
  outer loop
    vertex 108.60302950375032 280.3460443360162 1.9999999999999998
    vertex 110.61111599815091 278.3546722266949 1.9999999999999998
    vertex 108.60302950375032 323.34604433601623 1.9999999999999998
  endloop
endfacet
facet normal -0.0 -0.0 1.0
  outer loop
    vertex 23.611115998150915 325.3546722266949 1.9999999999999998
    vertex 25.603029503750335 323.34604433601623 1.9999999999999998
    vertex 110.61111599815091 325.3546722266949 1.9999999999999998
  endloop
endfacet
facet normal -0.0 -0.0 1.0
  outer loop
    vertex 25.603029503750335 323.34604433601623 1.9999999999999998
    vertex 23.611115998150915 325.3546722266949 1.9999999999999998
    vertex 25.603029503750335 280.3460443360162 1.9999999999999998
  endloop
endfacet
facet normal -0.0 -0.0 1.0
  outer loop
    vertex 110.61111599815091 325.3546722266949 1.9999999999999998
    vertex 25.603029503750335 323.34604433601623 1.9999999999999998
    vertex 108.60302950375032 323.34604433601623 1.9999999999999998
  endloop
endfacet
facet normal -0.0 -0.0 1.0
  outer loop
    vertex 110.61111599815091 325.3546722266949 1.9999999999999998
    vertex 108.60302950375032 323.34604433601623 1.9999999999999998
    vertex 110.61111599815091 278.3546722266949 1.9999999999999998
  endloop
endfacet
facet normal 0.9999999999999999 0.0 0.0
  outer loop
    vertex 110.61111599815091 325.3546722266949 0.0
    vertex 110.61111599815091 278.3546722266949 1.9999999999999998
    vertex 110.61111599815091 278.3546722266949 0.0
  endloop
endfacet
facet normal 0.9999999999999999 0.0 0.0
  outer loop
    vertex 110.61111599815091 278.3546722266949 1.9999999999999998
    vertex 110.61111599815091 325.3546722266949 0.0
    vertex 110.61111599815091 325.3546722266949 1.9999999999999998
  endloop
endfacet
facet normal -0.0 -0.9999999999999999 -0.0
  outer loop
    vertex 110.61111599815091 278.3546722266949 1.9999999999999998
    vertex 23.611115998150915 278.3546722266949 0.0
    vertex 110.61111599815091 278.3546722266949 0.0
  endloop
endfacet
facet normal -0.0 -0.9999999999999999 -0.0
  outer loop
    vertex 23.611115998150915 278.3546722266949 0.0
    vertex 110.61111599815091 278.3546722266949 1.9999999999999998
    vertex 23.611115998150915 278.3546722266949 1.9999999999999998
  endloop
endfacet
facet normal -0.9999999999999999 0.0 0.0
  outer loop
    vertex 23.611115998150915 325.3546722266949 1.9999999999999998
    vertex 23.611115998150915 278.3546722266949 0.0
    vertex 23.611115998150915 278.3546722266949 1.9999999999999998
  endloop
endfacet
facet normal -0.9999999999999999 0.0 0.0
  outer loop
    vertex 23.611115998150915 278.3546722266949 0.0
    vertex 23.611115998150915 325.3546722266949 1.9999999999999998
    vertex 23.611115998150915 325.3546722266949 0.0
  endloop
endfacet
facet normal -0.0 0.9999999999999999 0.0
  outer loop
    vertex 23.611115998150915 325.3546722266949 1.9999999999999998
    vertex 110.61111599815091 325.3546722266949 0.0
    vertex 23.611115998150915 325.3546722266949 0.0
  endloop
endfacet
facet normal -0.0 0.9999999999999999 0.0
  outer loop
    vertex 110.61111599815091 325.3546722266949 0.0
    vertex 23.611115998150915 325.3546722266949 1.9999999999999998
    vertex 110.61111599815091 325.3546722266949 1.9999999999999998
  endloop
endfacet
facet normal 0.0 0.0 1.0
  outer loop
    vertex 108.60302950375032 280.3460443360162 3.0
    vertex 25.603029503750335 323.34604433601623 3.0
    vertex 25.603029503750335 280.3460443360162 3.0
  endloop
endfacet
facet normal 0.0 0.0 1.0
  outer loop
    vertex 25.603029503750335 323.34604433601623 3.0
    vertex 108.60302950375032 280.3460443360162 3.0
    vertex 108.60302950375032 323.34604433601623 3.0
  endloop
endfacet
facet normal 1.0 0.0 0.0
  outer loop
    vertex 108.60302950375032 323.34604433601623 1.9999999999999998
    vertex 108.60302950375032 280.3460443360162 3.0
    vertex 108.60302950375032 280.3460443360162 1.9999999999999998
  endloop
endfacet
facet normal 1.0 0.0 0.0
  outer loop
    vertex 108.60302950375032 280.3460443360162 3.0
    vertex 108.60302950375032 323.34604433601623 1.9999999999999998
    vertex 108.60302950375032 323.34604433601623 3.0
  endloop
endfacet
facet normal 0.0 1.0 -0.0
  outer loop
    vertex 25.603029503750335 323.34604433601623 3.0
    vertex 108.60302950375032 323.34604433601623 1.9999999999999998
    vertex 25.603029503750335 323.34604433601623 1.9999999999999998
  endloop
endfacet
facet normal 0.0 1.0 -0.0
  outer loop
    vertex 108.60302950375032 323.34604433601623 1.9999999999999998
    vertex 25.603029503750335 323.34604433601623 3.0
    vertex 108.60302950375032 323.34604433601623 3.0
  endloop
endfacet
facet normal -1.0 0.0 0.0
  outer loop
    vertex 25.603029503750335 323.34604433601623 3.0
    vertex 25.603029503750335 280.3460443360162 1.9999999999999998
    vertex 25.603029503750335 280.3460443360162 3.0
  endloop
endfacet
facet normal -1.0 0.0 0.0
  outer loop
    vertex 25.603029503750335 280.3460443360162 1.9999999999999998
    vertex 25.603029503750335 323.34604433601623 3.0
    vertex 25.603029503750335 323.34604433601623 1.9999999999999998
  endloop
endfacet
facet normal 0.0 -1.0 0.0
  outer loop
    vertex 108.60302950375032 280.3460443360162 3.0
    vertex 25.603029503750335 280.3460443360162 1.9999999999999998
    vertex 108.60302950375032 280.3460443360162 1.9999999999999998
  endloop
endfacet
facet normal 0.0 -1.0 0.0
  outer loop
    vertex 25.603029503750335 280.3460443360162 1.9999999999999998
    vertex 108.60302950375032 280.3460443360162 3.0
    vertex 25.603029503750335 280.3460443360162 3.0
  endloop
endfacet
endsolid bottom
